<svg width="66" height="69" viewBox="0 0 66 69" fill="none" xmlns="http://www.w3.org/2000/svg">
<g filter="url(#filter0_d)">
<path d="M45.3951 58.1283C41.5593 58.8364 37.8575 56.2905 37.1373 52.4294C36.4338 48.5683 38.9631 44.8421 42.7988 44.1171C46.6346 43.3921 50.3364 45.9549 51.0567 49.816C51.7769 53.6939 49.2309 57.4033 45.3951 58.1283ZM41.9446 39.4467C35.546 40.6438 31.3082 46.8485 32.4975 53.2893C33.6868 59.7301 39.8508 63.9958 46.2494 62.7987C52.6479 61.6016 56.8857 55.3969 55.6965 48.9561C54.5072 42.5153 48.3431 38.2495 41.9446 39.4467ZM9.81778 21.3046C9.34877 18.7249 11.0405 16.2464 13.5866 15.7743C14.9936 15.5045 16.3671 15.926 17.3888 16.7522C18.7456 15.8586 20.2196 15.1336 21.7941 14.5603C19.6836 11.8963 16.2666 10.4463 12.7156 11.1038C7.59001 12.0649 4.20647 17.0219 5.16123 22.1813C5.61349 24.643 6.987 26.6831 8.84627 28.0657C9.34877 26.4808 10.069 24.9802 10.9065 23.5808C10.3705 22.94 9.96853 22.1813 9.81778 21.3046ZM52.4302 18.1685C49.8674 18.6406 47.4051 16.9376 46.9361 14.358C46.4671 11.7783 48.1589 9.29975 50.7217 8.82766C53.2844 8.35556 55.7467 10.0585 56.2157 12.6382C56.668 15.201 54.9762 17.6964 52.4302 18.1685ZM49.8339 4.15725C44.7084 5.1183 41.3248 10.0753 42.2796 15.2347C42.4638 16.2295 42.8323 17.1568 43.3013 17.9999L39.3986 21.6755C35.7805 18.7417 30.9565 17.3592 26.0487 18.2696C17.0873 19.9388 11.1578 28.639 12.8328 37.6426C14.2063 45.1287 20.4206 50.5073 27.6064 51.148C27.6064 49.5125 27.8409 47.9276 28.2932 46.4101C23.0504 46.056 18.4776 42.2118 17.4726 36.7658C16.2833 30.325 20.5211 24.1203 26.9197 22.9232C33.3182 21.7261 39.4823 25.9918 40.6716 32.4326C40.8223 33.2419 40.8893 34.0344 40.8726 34.8268C40.9563 34.81 41.0233 34.7931 41.1071 34.7762C42.6146 34.4896 44.1221 34.439 45.5794 34.5739C45.5794 33.5791 45.4956 32.5844 45.3114 31.5727C44.8759 29.1785 43.9211 27.0203 42.6313 25.1319L46.5174 21.4732C48.4604 22.7209 50.8557 23.2773 53.2844 22.822C58.41 21.861 61.7935 16.9039 60.8388 11.7446C59.884 6.61891 54.9595 3.21305 49.8339 4.15725Z" fill="#00B29F"/>
</g>
<defs>
<filter id="filter0_d" x="0" y="0" width="66" height="69" filterUnits="userSpaceOnUse" color-interpolation-filters="sRGB">
<feFlood flood-opacity="0" result="BackgroundImageFix"/>
<feColorMatrix in="SourceAlpha" type="matrix" values="0 0 0 0 0 0 0 0 0 0 0 0 0 0 0 0 0 0 127 0"/>
<feOffset dy="1"/>
<feGaussianBlur stdDeviation="2.5"/>
<feColorMatrix type="matrix" values="0 0 0 0 0 0 0 0 0 0 0 0 0 0 0 0 0 0 0.25 0"/>
<feBlend mode="normal" in2="BackgroundImageFix" result="effect1_dropShadow"/>
<feBlend mode="normal" in="SourceGraphic" in2="effect1_dropShadow" result="shape"/>
</filter>
</defs>
</svg>
