<svg width="375" height="145" viewBox="0 0 375 145" fill="none" xmlns="http://www.w3.org/2000/svg">
<g filter="url(#filter0_d)">
<path d="M117.033 83.2156C118.069 83.2156 118.638 82.6809 118.638 81.5908V67.1936C118.638 66.1036 118.069 65.5277 117.033 65.5277H113.354V83.2156H117.033ZM107.886 60.8177C107.886 60.4064 108.089 60.1596 108.537 60.1596H118.171C121.931 60.1596 123.943 62.2369 123.943 66.0419V82.722C123.943 86.527 121.931 88.5631 118.171 88.5631H108.537C108.089 88.5631 107.886 88.3575 107.886 87.905V60.8177Z" fill="#00B29F"/>
<path d="M144.715 64.8901C144.715 65.3014 144.553 65.5894 144.065 65.5894H134.167V71.8418H141.707C142.114 71.8418 142.337 72.0887 142.337 72.5411V76.5518C142.337 77.0043 142.094 77.2305 141.707 77.2305H134.167V83.2362H144.065C144.553 83.2362 144.715 83.4418 144.715 83.8943V87.9461C144.715 88.3574 144.553 88.6043 144.065 88.6043H129.309C128.943 88.6043 128.699 88.3574 128.699 87.9461V60.8177C128.699 60.4064 128.943 60.1596 129.309 60.1596H144.065C144.553 60.1596 144.715 60.4064 144.715 60.8177V64.8901Z" fill="#00B29F"/>
<path d="M165.996 60.1802C166.403 60.1802 166.646 60.427 166.646 60.8383V87.9461C166.646 88.3574 166.403 88.6043 165.996 88.6043H162.825C162.459 88.6043 162.256 88.4397 162.114 88.0695L154.573 72.5617V87.9461C154.573 88.3574 154.37 88.6043 153.923 88.6043H150.163C149.756 88.6043 149.512 88.3574 149.512 87.9461V60.8177C149.512 60.4064 149.756 60.1596 150.163 60.1596H153.333C153.699 60.1596 153.902 60.3241 154.045 60.6943L161.585 76.2021V60.8177C161.585 60.4064 161.789 60.1596 162.236 60.1596H165.996V60.1802Z" fill="#00B29F"/>
<path d="M186.687 74.783C187.724 74.783 188.293 74.2071 188.293 73.1582V67.0291C188.293 65.9802 187.724 65.4043 186.687 65.4043H182.683V74.783H186.687ZM193.496 74.166C193.496 76.5107 192.724 78.1766 191.24 79.1227L193.333 87.8433C193.455 88.3369 193.212 88.5631 192.764 88.5631H188.842C188.435 88.5631 188.232 88.3575 188.171 87.9872L186.24 79.9865H182.683V87.905C182.683 88.3163 182.439 88.5631 182.033 88.5631H178.11C177.703 88.5631 177.459 88.3163 177.459 87.905V60.8177C177.459 60.4064 177.703 60.1596 178.11 60.1596H187.744C191.504 60.1596 193.516 62.1958 193.516 66.0007V74.166H193.496Z" fill="#00B29F"/>
<path d="M214.289 64.8901C214.289 65.3014 214.126 65.5894 213.638 65.5894H203.74V71.8418H211.28C211.687 71.8418 211.931 72.0887 211.931 72.5411V76.5518C211.931 77.0043 211.687 77.2305 211.28 77.2305H203.74V83.2362H213.638C214.126 83.2362 214.289 83.4418 214.289 83.8943V87.9461C214.289 88.3574 214.126 88.6043 213.638 88.6043H198.882C198.516 88.6043 198.272 88.3574 198.272 87.9461V60.8177C198.272 60.4064 198.516 60.1596 198.882 60.1596H213.638C214.126 60.1596 214.289 60.4064 214.289 60.8177V64.8901Z" fill="#00B29F"/>
<path d="M235.569 60.1802C235.976 60.1802 236.219 60.427 236.219 60.8383V87.9461C236.219 88.3574 235.976 88.6043 235.569 88.6043H232.398C232.032 88.6043 231.829 88.4397 231.687 88.0695L224.146 72.5617V87.9461C224.146 88.3574 223.943 88.6043 223.496 88.6043H219.736C219.329 88.6043 219.085 88.3574 219.085 87.9461V60.8177C219.085 60.4064 219.329 60.1596 219.736 60.1596H222.906C223.272 60.1596 223.476 60.3241 223.618 60.6943L231.159 76.2021V60.8177C231.159 60.4064 231.362 60.1596 231.809 60.1596H235.569V60.1802Z" fill="#00B29F"/>
<path d="M257.012 64.8901C257.012 65.3014 256.85 65.5894 256.362 65.5894H246.463V71.8418H254.004C254.411 71.8418 254.655 72.0887 254.655 72.5411V76.5518C254.655 77.0043 254.411 77.2305 254.004 77.2305H246.463V83.2362H256.362C256.85 83.2362 257.012 83.4418 257.012 83.8943V87.9461C257.012 88.3574 256.85 88.6043 256.362 88.6043H241.606C241.24 88.6043 240.996 88.3574 240.996 87.9461V60.8177C240.996 60.4064 241.24 60.1596 241.606 60.1596H256.362C256.85 60.1596 257.012 60.4064 257.012 60.8177V64.8901Z" fill="#00B29F"/>
<path d="M273.293 83.2156H281.24C281.687 83.2156 281.87 83.4624 281.87 83.8738V87.9255C281.87 88.378 281.667 88.5631 281.24 88.5631H268.496C268.089 88.5631 267.846 88.3575 267.846 87.9255V60.8177C267.846 60.4064 268.089 60.1596 268.496 60.1596H272.663C273.11 60.1596 273.313 60.4064 273.313 60.8177V83.2156H273.293Z" fill="#00B29F"/>
<path d="M286.118 88.5837C285.671 88.5837 285.467 88.3368 285.467 87.9255V60.8177C285.467 60.4064 285.671 60.1596 286.118 60.1596H290.285C290.691 60.1596 290.935 60.4064 290.935 60.8177V87.9255C290.935 88.3368 290.691 88.5837 290.285 88.5837H286.118Z" fill="#00B29F"/>
<path d="M312.195 60.1802C312.602 60.1802 312.846 60.427 312.846 60.8383V87.9461C312.846 88.3574 312.602 88.6043 312.195 88.6043H309.024C308.659 88.6043 308.455 88.4397 308.313 88.0695L300.772 72.5617V87.9461C300.772 88.3574 300.569 88.6043 300.122 88.6043H296.362C295.955 88.6043 295.711 88.3574 295.711 87.9461V60.8177C295.711 60.4064 295.955 60.1596 296.362 60.1596H299.533C299.898 60.1596 300.102 60.3241 300.264 60.6943L307.805 76.2021V60.8177C307.805 60.4064 308.008 60.1596 308.455 60.1596H312.195V60.1802Z" fill="#00B29F"/>
<path d="M318.293 88.5837C317.846 88.5837 317.642 88.3368 317.642 87.9255V60.8177C317.642 60.4064 317.846 60.1596 318.293 60.1596H322.459C322.866 60.1596 323.11 60.4064 323.11 60.8177V87.9255C323.11 88.3368 322.866 88.5837 322.459 88.5837H318.293Z" fill="#00B29F"/>
<path d="M343.902 64.8901C343.902 65.3014 343.74 65.5894 343.252 65.5894H333.354V71.8418H340.894C341.301 71.8418 341.545 72.0887 341.545 72.5411V76.5518C341.545 77.0043 341.301 77.2305 340.894 77.2305H333.354V83.2362H343.252C343.74 83.2362 343.902 83.4418 343.902 83.8943V87.9461C343.902 88.3574 343.74 88.6043 343.252 88.6043H328.496C328.13 88.6043 327.886 88.3574 327.886 87.9461V60.8177C327.886 60.4064 328.13 60.1596 328.496 60.1596H343.252C343.74 60.1596 343.902 60.4064 343.902 60.8177V64.8901Z" fill="#00B29F"/>
<path d="M109.268 106.621H110.915C111.402 106.621 111.789 106.477 112.094 106.21C112.398 105.922 112.561 105.572 112.561 105.12C112.561 104.647 112.398 104.297 112.094 104.05C111.789 103.803 111.362 103.68 110.813 103.68C110.732 103.68 110.203 103.68 109.268 103.701V106.621ZM112.703 110.426L110.935 107.835C110.854 107.835 110.65 107.855 110.366 107.855H109.268V110.426H107.886V102.487C109.106 102.446 110.081 102.425 110.752 102.425C111.728 102.425 112.5 102.652 113.069 103.125C113.638 103.598 113.923 104.256 113.923 105.099C113.923 105.634 113.781 106.107 113.516 106.539C113.232 106.95 112.846 107.279 112.337 107.506L114.431 110.426H112.703Z" fill="#00B29F"/>
<path d="M117.215 102.487V110.426H122.907V109.131H118.598V107.094H122.419V105.819H118.598V103.783H122.907V102.487H117.215Z" fill="#00B29F"/>
<path d="M131.768 102.487V108.102L127.398 102.487H126.118V110.426H127.5V104.873L131.829 110.426H133.15V102.487H131.768Z" fill="#00B29F"/>
<path d="M144.126 105.86V109.748C142.785 110.323 141.565 110.611 140.508 110.611C139.248 110.611 138.232 110.241 137.459 109.46C136.707 108.699 136.321 107.67 136.321 106.416C136.321 105.202 136.728 104.194 137.52 103.433C138.333 102.672 139.39 102.302 140.711 102.302C141.606 102.302 142.5 102.426 143.415 102.652L143.13 103.968C142.032 103.762 141.24 103.66 140.813 103.66C139.919 103.66 139.167 103.906 138.597 104.421C138.049 104.914 137.764 105.593 137.764 106.416C137.764 107.259 138.008 107.938 138.516 108.452C139.024 108.966 139.675 109.233 140.508 109.233C141.24 109.233 142.012 109.11 142.825 108.884V107.156H140V105.86H144.126Z" fill="#00B29F"/>
<path d="M151.28 109.295C152.073 109.295 152.744 109.028 153.232 108.514C153.74 107.979 154.004 107.3 154.004 106.477C154.004 105.778 153.821 105.202 153.475 104.709L149.817 108.925C150.244 109.151 150.732 109.295 151.28 109.295ZM148.536 106.457C148.536 107.074 148.679 107.609 148.963 108.061L152.541 103.907C152.175 103.721 151.748 103.619 151.26 103.619C150.467 103.619 149.797 103.886 149.288 104.4C148.801 104.935 148.536 105.634 148.536 106.457ZM154.898 103.063L154.431 103.619C155.102 104.38 155.447 105.326 155.447 106.477C155.447 107.712 155.061 108.719 154.268 109.48C153.496 110.241 152.48 110.632 151.26 110.632C150.345 110.632 149.553 110.426 148.882 109.995L148.354 110.612L147.459 109.83L148.008 109.213C147.398 108.493 147.093 107.588 147.093 106.498C147.093 105.264 147.48 104.256 148.252 103.495C149.024 102.734 150.02 102.343 151.26 102.343C152.073 102.343 152.805 102.529 153.475 102.899L153.984 102.323L154.898 103.063Z" fill="#00B29F"/>
<path d="M159.939 106.621H161.585C162.073 106.621 162.459 106.477 162.764 106.21C163.069 105.922 163.232 105.572 163.232 105.12C163.232 104.647 163.069 104.297 162.764 104.05C162.459 103.804 162.032 103.68 161.484 103.68C161.402 103.68 160.874 103.68 159.939 103.701V106.621ZM163.394 110.426L161.626 107.835C161.545 107.835 161.341 107.855 161.057 107.855H159.959V110.426H158.577V102.487C159.797 102.446 160.772 102.426 161.443 102.426C162.419 102.426 163.191 102.652 163.76 103.125C164.329 103.598 164.614 104.256 164.614 105.099C164.614 105.634 164.471 106.107 164.187 106.539C163.902 106.95 163.516 107.28 163.008 107.506L165.102 110.426H163.394Z" fill="#00B29F"/>
<path d="M169.289 102.487H167.906V110.426H169.289V102.487Z" fill="#00B29F"/>
<path d="M178.496 102.487V108.102L174.106 102.487H172.825V110.426H174.228V104.873L178.557 110.426H179.858V102.487H178.496Z" fill="#00B29F"/>
<path d="M190.833 105.86V109.748C189.492 110.323 188.272 110.611 187.215 110.611C185.955 110.611 184.939 110.241 184.167 109.46C183.415 108.699 183.028 107.67 183.028 106.416C183.028 105.202 183.435 104.194 184.228 103.433C185.041 102.672 186.098 102.302 187.419 102.302C188.313 102.302 189.207 102.426 190.122 102.652L189.837 103.968C188.74 103.762 187.947 103.66 187.52 103.66C186.626 103.66 185.874 103.906 185.305 104.421C184.756 104.914 184.472 105.593 184.472 106.416C184.472 107.259 184.715 107.938 185.224 108.452C185.732 108.966 186.382 109.233 187.215 109.233C187.947 109.233 188.719 109.11 189.532 108.884V107.156H186.707V105.86H190.833Z" fill="#00B29F"/>
<path d="M205.447 102.487V107.053C205.447 108.143 205.122 109.007 204.472 109.665C203.841 110.303 202.988 110.632 201.911 110.632C200.854 110.632 200 110.303 199.35 109.665C198.719 109.028 198.394 108.143 198.394 107.053V102.487H199.776V107.053C199.776 107.753 199.98 108.308 200.346 108.699C200.732 109.11 201.26 109.295 201.911 109.295C202.561 109.295 203.069 109.089 203.476 108.699C203.862 108.287 204.065 107.753 204.065 107.053V102.487H205.447Z" fill="#00B29F"/>
<path d="M214.431 102.487V108.102L210.061 102.487H208.781V110.426H210.163V104.873L214.492 110.426H215.813V102.487H214.431Z" fill="#00B29F"/>
<path d="M222.317 109.233C223.028 109.233 223.618 108.966 224.106 108.452C224.593 107.917 224.837 107.259 224.837 106.416C224.837 105.593 224.593 104.935 224.085 104.421C223.577 103.906 222.927 103.66 222.134 103.66C221.585 103.66 221.118 103.68 220.752 103.701V109.172C221.362 109.233 221.89 109.233 222.317 109.233ZM222.114 102.384C223.333 102.384 224.329 102.755 225.102 103.495C225.874 104.236 226.26 105.223 226.26 106.436C226.26 107.65 225.874 108.637 225.122 109.398C224.37 110.159 223.435 110.529 222.297 110.529C221.138 110.529 220.163 110.509 219.329 110.447V102.508C220.508 102.426 221.443 102.384 222.114 102.384Z" fill="#00B29F"/>
<path d="M229.39 102.487V110.426H235.081V109.131H230.772V107.094H234.594V105.819H230.772V103.783H235.081V102.487H229.39Z" fill="#00B29F"/>
<path d="M239.675 106.623H241.321C241.809 106.623 242.195 106.479 242.5 106.212C242.805 105.924 242.967 105.574 242.967 105.121C242.967 104.648 242.805 104.299 242.5 104.052C242.195 103.805 241.768 103.682 241.219 103.682C241.138 103.682 240.61 103.682 239.675 103.702V106.623ZM243.13 110.428L241.362 107.836C241.28 107.836 241.077 107.857 240.793 107.857H239.695V110.428H238.313V102.489C239.533 102.448 240.508 102.427 241.199 102.427C242.175 102.427 242.947 102.653 243.496 103.126C244.065 103.599 244.35 104.258 244.35 105.101C244.35 105.636 244.207 106.109 243.943 106.541C243.659 106.952 243.272 107.281 242.764 107.507L244.858 110.428H243.13Z" fill="#00B29F"/>
<path d="M253.577 108.514C254.085 109.028 254.756 109.295 255.549 109.295C256.342 109.295 257.012 109.028 257.5 108.514C258.008 107.979 258.272 107.3 258.272 106.477C258.272 105.634 258.008 104.955 257.5 104.441C256.992 103.927 256.342 103.66 255.549 103.66C254.736 103.66 254.085 103.927 253.577 104.441C253.069 104.976 252.825 105.655 252.825 106.477C252.825 107.3 253.069 107.979 253.577 108.514ZM252.52 103.454C253.313 102.693 254.309 102.302 255.549 102.302C256.789 102.302 257.785 102.693 258.557 103.454C259.329 104.215 259.715 105.223 259.715 106.457C259.715 107.691 259.329 108.699 258.557 109.46C257.785 110.221 256.768 110.611 255.549 110.611C254.329 110.611 253.313 110.221 252.52 109.46C251.748 108.699 251.362 107.691 251.362 106.457C251.362 105.223 251.748 104.215 252.52 103.454Z" fill="#00B29F"/>
<path d="M268.171 102.487L265.671 108.534L263.232 102.487H261.626L265.041 110.426H266.341L269.736 102.487H268.171Z" fill="#00B29F"/>
<path d="M272.561 102.487V110.426H278.252V109.131H273.943V107.094H277.764V105.819H273.943V103.783H278.252V102.487H272.561Z" fill="#00B29F"/>
<path d="M282.846 106.621H284.492C284.98 106.621 285.366 106.477 285.671 106.21C285.976 105.922 286.138 105.572 286.138 105.12C286.138 104.647 285.976 104.297 285.671 104.05C285.366 103.804 284.939 103.68 284.39 103.68C284.309 103.68 283.781 103.68 282.846 103.701V106.621ZM286.301 110.426L284.533 107.835C284.451 107.835 284.248 107.855 283.963 107.855H282.866V110.426H281.484V102.487C282.703 102.446 283.659 102.426 284.35 102.426C285.325 102.426 286.098 102.652 286.646 103.125C287.216 103.598 287.5 104.256 287.5 105.099C287.5 105.634 287.358 106.107 287.073 106.539C286.789 106.95 286.403 107.279 285.894 107.506L287.988 110.426H286.301Z" fill="#00B29F"/>
<path d="M290.793 102.487V110.426H292.175V107.444H295.833V106.128H292.175V103.783H296.341V102.487H290.793Z" fill="#00B29F"/>
<path d="M299.187 102.487V110.426H304.695V109.172H300.569V102.487H299.187Z" fill="#00B29F"/>
<path d="M311.28 104.277L312.703 107.567H309.858L311.28 104.277ZM310.63 102.446L307.053 110.426H308.618L309.309 108.801H313.211L313.923 110.426H315.468L311.89 102.446H310.63Z" fill="#00B29F"/>
<path d="M321.321 109.233C322.032 109.233 322.622 108.966 323.11 108.452C323.598 107.917 323.841 107.259 323.841 106.416C323.841 105.593 323.598 104.935 323.089 104.421C322.581 103.906 321.931 103.66 321.138 103.66C320.589 103.66 320.122 103.68 319.756 103.701V109.172C320.345 109.233 320.874 109.233 321.321 109.233ZM321.118 102.384C322.337 102.384 323.333 102.755 324.106 103.495C324.878 104.236 325.264 105.223 325.264 106.436C325.264 107.65 324.878 108.637 324.126 109.398C323.374 110.159 322.439 110.529 321.301 110.529C320.142 110.529 319.167 110.509 318.333 110.447V102.508C319.512 102.426 320.427 102.384 321.118 102.384Z" fill="#00B29F"/>
<path d="M328.374 102.487V110.426H334.065V109.131H329.776V107.094H333.598V105.819H329.776V103.783H334.065V102.487H328.374Z" fill="#00B29F"/>
<path d="M342.947 102.487V108.102L338.557 102.487H337.297V110.426H338.679V104.873L343.008 110.426H344.309V102.487H342.947Z" fill="#00B29F"/>
<path d="M73.3942 95.4738C68.7398 96.3376 64.2479 93.2319 63.3739 88.522C62.5202 83.8121 65.5894 79.2667 70.2438 78.3823C74.8983 77.4979 79.3902 80.6241 80.2642 85.3341C81.1381 90.0646 78.0487 94.5894 73.3942 95.4738ZM69.2072 72.6851C61.443 74.1454 56.3007 81.7142 57.7438 89.5709C59.1869 97.4277 66.6666 102.631 74.4308 101.171C82.195 99.7107 87.3373 92.1419 85.8942 84.2851C84.4511 76.4284 76.9715 71.2248 69.2072 72.6851ZM30.2235 50.5546C29.6544 47.4078 31.7072 44.3844 34.7967 43.8085C36.504 43.4795 38.1706 43.9936 39.4105 45.0014C41.0568 43.9114 42.8454 43.027 44.756 42.3277C42.195 39.078 38.0487 37.3092 33.7398 38.1114C27.5202 39.2837 23.4146 45.3305 24.5731 51.6241C25.1219 54.627 26.7885 57.1156 29.0446 58.8022C29.6544 56.8688 30.5284 55.0383 31.5446 53.3312C30.8942 52.5497 30.4064 51.6241 30.2235 50.5546ZM81.9308 46.7291C78.8211 47.305 75.8333 45.2277 75.2641 42.0809C74.695 38.9341 76.7479 35.9107 79.8576 35.3348C82.9674 34.7589 85.9552 36.8362 86.5243 39.983C87.0731 43.1092 85.0203 46.1532 81.9308 46.7291ZM78.7804 29.6376C72.5609 30.8099 68.4552 36.8568 69.6137 43.1504C69.8373 44.3639 70.2845 45.4951 70.8536 46.5234L66.1178 51.0071C61.7276 47.4284 55.8739 45.7419 49.9186 46.8525C39.0446 48.8887 31.8495 59.5014 33.882 70.4844C35.5487 79.6163 43.0893 86.1773 51.8089 86.9589C51.8089 84.9639 52.0934 83.0305 52.6422 81.1795C46.2804 80.7475 40.7316 76.0582 39.5121 69.4149C38.069 61.5582 43.2113 53.9894 50.9755 52.5291C58.7398 51.0688 66.2194 56.2724 67.6625 64.1291C67.8455 65.1163 67.9268 66.083 67.9064 67.0497C68.0081 67.0291 68.0894 67.0085 68.191 66.988C70.0202 66.6383 71.8495 66.5766 73.6178 66.7412C73.6178 65.5277 73.5162 64.3142 73.2926 63.0802C72.7642 60.1596 71.6056 57.527 70.0406 55.2234L74.756 50.7603C77.1137 52.2823 80.0202 52.961 82.9674 52.4057C89.1869 51.2334 93.2926 45.1865 92.1341 38.8929C90.9755 32.6404 84.9999 28.4858 78.7804 29.6376Z" fill="#00B29F"/>
</g>
<defs>
<filter id="filter0_d" x="-5" y="-2" width="385" height="155" filterUnits="userSpaceOnUse" color-interpolation-filters="sRGB">
<feFlood flood-opacity="0" result="BackgroundImageFix"/>
<feColorMatrix in="SourceAlpha" type="matrix" values="0 0 0 0 0 0 0 0 0 0 0 0 0 0 0 0 0 0 127 0"/>
<feOffset dy="3"/>
<feGaussianBlur stdDeviation="2.5"/>
<feColorMatrix type="matrix" values="0 0 0 0 0 0 0 0 0 0 0 0 0 0 0 0 0 0 0.25 0"/>
<feBlend mode="normal" in2="BackgroundImageFix" result="effect1_dropShadow"/>
<feBlend mode="normal" in="SourceGraphic" in2="effect1_dropShadow" result="shape"/>
</filter>
</defs>
</svg>
